<svg width="212" height="356" viewBox="0 0 212 356" fill="none" xmlns="http://www.w3.org/2000/svg">
<g id="Logo">
<path id="C" d="M130.896 274.592C110.928 274.592 93.84 270.368 79.632 261.92C65.424 253.472 54.48 241.472 46.8 225.92C39.312 210.368 35.568 191.84 35.568 170.336C35.568 149.024 39.312 130.592 46.8 115.04C54.48 99.488 65.424 87.488 79.632 79.04C93.84 70.592 110.928 66.368 130.896 66.368C144.912 66.368 157.776 68.576 169.488 72.992C181.392 77.408 191.472 83.84 199.728 92.288L190.512 111.584C181.68 103.328 172.464 97.376 162.864 93.728C153.456 89.888 142.992 87.968 131.472 87.968C108.624 87.968 91.152 95.168 79.056 109.568C66.96 123.968 60.912 144.224 60.912 170.336C60.912 196.64 66.96 216.992 79.056 231.392C91.152 245.792 108.624 252.992 131.472 252.992C142.992 252.992 153.456 251.168 162.864 247.52C172.464 243.68 181.68 237.632 190.512 229.376L199.728 248.672C191.472 256.928 181.392 263.36 169.488 267.968C157.776 272.384 144.912 274.592 130.896 274.592Z" fill="#CED9E7"/>
<path id="C_2" d="M112.896 274.592C92.928 274.592 75.84 270.368 61.632 261.92C47.424 253.472 36.48 241.472 28.8 225.92C21.312 210.368 17.568 191.84 17.568 170.336C17.568 149.024 21.312 130.592 28.8 115.04C36.48 99.488 47.424 87.488 61.632 79.04C75.84 70.592 92.928 66.368 112.896 66.368C126.912 66.368 139.776 68.576 151.488 72.992C163.392 77.408 173.472 83.84 181.728 92.288L172.512 111.584C163.68 103.328 154.464 97.376 144.864 93.728C135.456 89.888 124.992 87.968 113.472 87.968C90.624 87.968 73.152 95.168 61.056 109.568C48.96 123.968 42.912 144.224 42.912 170.336C42.912 196.64 48.96 216.992 61.056 231.392C73.152 245.792 90.624 252.992 113.472 252.992C124.992 252.992 135.456 251.168 144.864 247.52C154.464 243.68 163.68 237.632 172.512 229.376L181.728 248.672C173.472 256.928 163.392 263.36 151.488 267.968C139.776 272.384 126.912 274.592 112.896 274.592Z" fill="#2E7AD0"/>
<g id="Lines">
<line id="Line 1" x1="100.5" y1="48" x2="100.5" y2="306" stroke="#2E7AD0" stroke-width="7"/>
<line id="Line 2" x1="132.5" y1="48" x2="132.5" y2="306" stroke="#CED9E7" stroke-width="7"/>
</g>
</g>
</svg>
